# xmcd
#
# Track frame offsets: 
#        150
#        10989
#        23693
#        37667
#        50739
#        63118
#        75477
#        88745
#        102401
#        115426
#        130544
#        144373
#        154248
#        167791
#        181961
#        200825
#        213129
#        223569
#        236708
#        251175
#        263538
#
# Disc length: 3675 seconds
#
# Revision: 0
# Processed by: cddbd v1.5.2PL0 Copyright (c) Steve Scherf et al.
# Submitted via: ExactAudioCopy v1.0b4
#
DISCID=1e0e5915
DTITLE=Various Artist - The Songs Of Willie Dixon [CD1 - 1951-1962)
DYEAR=2012
DGENRE=Blues
TTITLE0=Big Three Trio - Violent Love
TTITLE1=Muddy Waters - I'm Your Hoochie Coochie Man
TTITLE2=Muddy Waters - I'm Ready
TTITLE3=Jimmy Witherspoon - When The Lights Go Out
TTITLE4=Little Walter - Mellow Down Easy
TTITLE5=Little Walter - My Babe
TTITLE6=Lowell Fulsom - Do Me Right
TTITLE7=Muddy Waters - Young Fashioned Ways
TTITLE8=Willie Dixon - Crazy For My Baby
TTITLE9=Willie Dixon - Pain In My Heart 
TTITLE10=Willie Dixon - Walkin' Blues
TTITLE11=Willie Dixon - 29 Ways
TTITLE12=Otis Rush - I Can't Quit You Baby
TTITLE13=Lowell Fulsom - Tollin' Bells
TTITLE14=Etta James - Spoonful
TTITLE15=Otis Rush - You Know My Love
TTITLE16=Ann-Margret - It Do Me So Good
TTITLE17=Howlin Wolf - I Ain't Superstitious
TTITLE18=Bo Diddley - You Can't Judge A Book By The Cove
TTITLE19=Muddy Waters - You Need Love
TTITLE20=Muddy Waters - You Shook Me
EXTD=
EXTT0=
EXTT1=
EXTT2=
EXTT3=
EXTT4=
EXTT5=
EXTT6=
EXTT7=
EXTT8=
EXTT9=
EXTT10=
EXTT11=
EXTT12=
EXTT13=
EXTT14=
EXTT15=
EXTT16=
EXTT17=
EXTT18=
EXTT19=
EXTT20=
PLAYORDER=
